<?xml version="1.0" encoding="utf-8"?>
<!-- Generator: Adobe Illustrator 20.1.0, SVG Export Plug-In . SVG Version: 6.00 Build 0)  -->
<svg version="1.1" id="Layer_1" xmlns="http://www.w3.org/2000/svg" xmlns:xlink="http://www.w3.org/1999/xlink" x="0px" y="0px"
	 viewBox="0 0 141 47.4" style="enable-background:new 0 0 141 47.4;" xml:space="preserve">
<style type="text/css">
	.st0{fill:#FFFFFF;}
</style>
<title>logo</title>
<path class="st0" d="M115.2,36.1l1.6-0.6h0.4l0.9,0.2l0.3,0.2h0.1l0.2-0.2l1.2-0.4l0.4-0.4h1l0.5,0.2l0.3,0.3h0.1l0.4,0.8v0.9
	l0.6-1.6l0.2-0.3V35l0,0v-0.8H123v-1c0-0.2,0-0.5,0.1-0.7h0.1v-0.2l0.2-0.5l0.4-0.5l0.9-0.5l0.6,0.4h0.2l0.6-0.4h0.1v-7
	c0-3.3,4.9-4.1,7.1-4.1s5.7,0.1,7.5,0.6v-8.4c-1.7-0.6-3.6-0.6-6.9-0.6s-5.3,0.4-7.3,1.9l-1.1,1v-3h-10.6v25.1L115.2,36.1z"/>
<path class="st0" d="M0,13.3v24h11.7V20.4h12.9v-8.1H11.3c0-0.4,0.1-0.9,0.2-1.3c1.1-3.2,4.7-4,7.4-4h6.8V0h-7.3C8.5,0,0,5.3,0,13.3
	z"/>
<path class="st0" d="M99,35.5v1.8h3.1v-1.6l0.8-2.5l0.4-1.1c0.2-0.7,0.6-1.3,1.2-1.8h0.1l1-0.5l1.9-0.5h0.7l0.5,0.2l0.6,1.4
	l-0.9,1.9l-1.1,3.1l-0.8,0.6l0,0l-0.5,0.2h0l-0.2,0.6h4.8V11.4H98.9v15.2c0,3.8-7,3.6-9.1,3.6S84,29.9,84,26.1V11.3H72.6v18.4
	c0,4.2,6.5,8,15.2,8c3.7,0.1,7.3-0.7,10.6-2.3C98.6,35.2,98.7,35.3,99,35.5z"/>
<path class="st0" d="M47.9,10.8c-12.2,0-21.8,6.2-21.8,13.4s9.5,13.4,21.8,13.4s21.8-6.2,21.8-13.4S60.1,10.8,47.9,10.8z M47.9,30.1
	c-5.1,0-9.7-2.4-9.7-5.9s4.6-5.9,9.7-5.9s9.7,2.4,9.7,5.9S53,30.1,47.9,30.1z"/>
<path class="st0" d="M130.8,42.3l0.4-1.6l0.6-1.2l0.5-0.7l0.2-0.3l0.5-0.4h0.1l0.9-0.6h0.2l0.6-0.4l1.5-0.6h0.7v0.2l0,0v0.2
	c0,0.1-0.1,0.2-0.2,0.2h-0.1l-0.7,0.4l-0.2,0.2l-0.6,0.5l-0.7,1.1l-0.5,0.8l-0.4,1.3v2l0.4,0.2h1l0.5-0.3h0.1l0.3-0.3v0.2l0.2-0.2
	h0.2l0.8-0.6h0.4l-0.2-0.2h-0.1l0.4-1.3l-0.5,0.5l0.5-1.9h-0.1v-0.2l0,0v-1.2h-0.9v-0.5h0.8l0.6-0.3l0,0l0.2-0.2h0.3l0.8-0.3v-0.3h1
	v0.7l0.2,0.6v1.7l-0.3,1.1l-0.5,1.1l-0.5,0.9l-0.4,0.5V43l-0.4,0.6h-0.2l-0.8,0.5h-0.2l-1.7,1l-0.8,0.3h-0.3l-0.4,0.2l-0.6,0.2h-1.7
	l-0.5-0.2l-0.6-0.5l-0.3-0.4v-0.2l-0.2-0.6v-1.6H130.8z M111.6,45v-0.2h0.1L111.6,45z M111.5,42.4l0.4-1.6l0.6-1.2l0.5-0.7l0.2-0.3
	l0.5-0.4h0.1l0.9-0.6h0.2l0.6-0.4l1.5-0.6h0.7v0.2l0,0V37c0,0.1-0.1,0.2-0.2,0.2h-0.1l-0.7,0.4l-0.2,0.2l-0.6,0.5l-0.7,1.1l-0.5,0.8
	l-0.4,1.3v2l0.4,0.2h1l0.5-0.3h0.1l0.3-0.3v0.2l0.2-0.2h0.2l0.8-0.6h0.4l-0.2-0.2h-0.1l0.4-1.3l-0.5,0.5l0.5-1.9h-0.1v-0.2l0,0v-1.3
	h-0.9v-0.5h0.8l0.6-0.3l0,0l0.2-0.2h0.3l0.8-0.3v-0.3h1v0.7l0.2,0.6v1.7l-0.3,1.1l-0.5,1.1l-0.5,0.9l-0.4,0.5V43l-0.4,0.6h-0.2
	l-0.8,0.5h-0.2l-1.7,1l-0.8,0.3h-0.3l-0.4,0.2l-0.6,0.2h-1.7l-0.5-0.2l-0.6-0.5l-0.3-0.4v-0.2h-0.2v0.3H104l-1.3,0.2l-0.4,0.2h-0.1
	l-0.7,0.3l0.2-0.4h-0.3l-0.4,0.8h-0.3v-0.6l-0.3,0.3l0.2-0.7h-0.8v0.2L99,45.3l-0.8,0.3h-0.1l-0.6-0.2l0.3-0.2H98V46h0.1v-0.5
	l0.3-0.7l0.3-0.2l0.9-0.4l0,0l0.6-2l0.9-2.8l0.3-0.8l0.2,0.3h0.3v0.8l0,0l0.3-0.8l0.5-1.6v-0.4l0.2-0.5h-0.2l0.7-2.2v-0.3l0.4-1.1
	c0.2-0.5,0.5-1,0.9-1.4l0.8-0.4l1.1-0.3l0.8-0.2h0.5l-0.9,1.9l-0.7,1.9l-0.4,1v0.3h-0.2l-0.5,0.2v-0.2h-0.1v0.2h-0.5l-0.5,1.5
	l-0.2,0.4l-0.3,0.6l-0.4,1h0.1l-0.2,0.5h0.3v0.5l-0.4,1.4l-0.2,1.7h2.3l0.3,0.3h3.6l0.2,0.2h1.1V44h1.1v-1.7L111.5,42.4z
	 M121.3,45.5v-0.2H121l0.2-0.7h0.1l0.3-0.9h0.1l0.3-1.2l0.4-1.1v-0.3l0.2-0.7l0.3-1.1h0.1v-0.2l0.5-1.5l0.3-1.1l0.3-0.7l0.3-0.5
	h-0.1v-0.4h-0.1v-0.4H124v-0.2h-0.1v-1.9l0,0l0.2-0.5l0.9-0.5V32h0.8l0.6-0.4h0.2l0.4-0.4l0.3-0.3h0.6l-0.5,1.2l-0.4,1.2l-0.4,0.7
	l-0.6,1.4l-0.4,1v0.3h0.1l-0.7,1.6h-0.1c0,0.2,0,0.3-0.1,0.5h-0.1V39h0.1v0.5l-0.3,1v0.2l-0.4,1.1v1.7l0.4-0.5h0.1l0.2-0.3l0.3-0.5
	h0.1l0.5-0.6l0.3-0.7h0.4l1.2-1.3h0.1l0.3-0.3h0.3l0.4-0.4l0.2-0.3h0.2l0.2-0.3h0.1L130,38v-0.3h0.2l0.5-0.3l0.2-0.2h1.1l-0.6,2v0.2
	c0.1,0.1,0.1,0.2,0.1,0.3l0,0l-0.6,0.5H130V40h-0.2l-0.5,0.2l-0.7,0.6h-0.1V41l0.5,1l0,0v0.2l0.3,0.7l0.3,0.7l0.8,1.9l0.2,0.6h-0.2
	l0.2,0.4l0.2,0.7h-0.3l-0.3-0.7v-0.3H130l-0.3-0.2v0l0,0v0.5l-0.3,0.2v-0.2l-0.3-0.4h-0.4l0,0h-0.2l-0.6-1l-0.5-0.9l-0.2-0.3h-0.3
	l-0.3-0.4H126v0.2c-0.2,0.4-0.5,0.7-0.8,0.9H125l-0.2,0.2h-0.2v-0.2h-0.2l0.3-0.4l0.4-0.5l0.4-0.4h-0.1l-0.5,0.6l-0.4,0.5v0.2h-0.1
	l-0.5,0.6l0,0l-0.2,0.3l-0.3,0.3l-0.6,0.7v0.2h-0.3l-0.2,0.2l-0.4,0.2h-0.5l0.3-0.5l-0.2,0.2l-0.6,0.3L121.3,45.5z"/>
</svg>
